<svg xmlns="http://www.w3.org/2000/svg" xmlns:svgjs="http://svgjs.com/svgjs" xmlns:xlink="http://www.w3.org/1999/xlink" width="288" height="288"><svg xmlns="http://www.w3.org/2000/svg" width="288" height="288" viewBox="0 0 32 32"><path fill="#fff" d="M27 5H5a3 3 0 0 0-3 3v.4l13.64 7.33a1 1 0 0 0 .78 0L30 8.4V8a3 3 0 0 0-3-3zm2.68 20.32A3 3 0 0 0 30 24V10.67l-9.1 4.89zM2 10.67V24a3 3 0 0 0 .32 1.32l8.78-9.76zm15.31 6.82a3.16 3.16 0 0 1-1.33.3 3 3 0 0 1-1.24-.27l-1.83-1-9.15 10.2A3 3 0 0 0 5 27h22a3 3 0 0 0 1.25-.28l-9.17-10.18z" class="color000 svgShape" data-name="Message"/></svg></svg>